<svg width="215" height="50" viewBox="0 0 215 50" fill="none" xmlns="http://www.w3.org/2000/svg">
<rect width="215" height="50" fill="#C4C4C4"/>
<path d="M85.384 30.533H90.964V32H83.647V19.103H85.384V30.533ZM104.211 25.556C104.211 26.522 104.058 27.41 103.752 28.22C103.446 29.024 103.014 29.717 102.456 30.299C101.898 30.881 101.226 31.334 100.44 31.658C99.6604 31.976 98.7964 32.135 97.8484 32.135C96.9004 32.135 96.0364 31.976 95.2564 31.658C94.4764 31.334 93.8074 30.881 93.2494 30.299C92.6914 29.717 92.2594 29.024 91.9534 28.22C91.6474 27.41 91.4944 26.522 91.4944 25.556C91.4944 24.59 91.6474 23.705 91.9534 22.901C92.2594 22.091 92.6914 21.395 93.2494 20.813C93.8074 20.225 94.4764 19.769 95.2564 19.445C96.0364 19.121 96.9004 18.959 97.8484 18.959C98.7964 18.959 99.6604 19.121 100.44 19.445C101.226 19.769 101.898 20.225 102.456 20.813C103.014 21.395 103.446 22.091 103.752 22.901C104.058 23.705 104.211 24.59 104.211 25.556ZM102.42 25.556C102.42 24.764 102.312 24.053 102.096 23.423C101.88 22.793 101.574 22.262 101.178 21.83C100.782 21.392 100.302 21.056 99.7384 20.822C99.1744 20.588 98.5444 20.471 97.8484 20.471C97.1584 20.471 96.5314 20.588 95.9674 20.822C95.4034 21.056 94.9204 21.392 94.5184 21.83C94.1224 22.262 93.8164 22.793 93.6004 23.423C93.3844 24.053 93.2764 24.764 93.2764 25.556C93.2764 26.348 93.3844 27.059 93.6004 27.689C93.8164 28.313 94.1224 28.844 94.5184 29.282C94.9204 29.714 95.4034 30.047 95.9674 30.281C96.5314 30.509 97.1584 30.623 97.8484 30.623C98.5444 30.623 99.1744 30.509 99.7384 30.281C100.302 30.047 100.782 29.714 101.178 29.282C101.574 28.844 101.88 28.313 102.096 27.689C102.312 27.059 102.42 26.348 102.42 25.556ZM117.186 30.749C116.538 31.217 115.845 31.568 115.107 31.802C114.375 32.03 113.571 32.144 112.695 32.144C111.657 32.144 110.721 31.985 109.887 31.667C109.053 31.343 108.339 30.893 107.745 30.317C107.157 29.735 106.704 29.039 106.385 28.229C106.068 27.419 105.909 26.528 105.909 25.556C105.909 24.572 106.062 23.675 106.368 22.865C106.68 22.055 107.121 21.362 107.691 20.786C108.261 20.204 108.954 19.754 109.77 19.436C110.586 19.118 111.498 18.959 112.506 18.959C113.016 18.959 113.49 18.998 113.928 19.076C114.366 19.148 114.771 19.256 115.143 19.4C115.515 19.538 115.86 19.709 116.178 19.913C116.496 20.111 116.793 20.336 117.069 20.588L116.574 21.38C116.496 21.5 116.394 21.578 116.268 21.614C116.148 21.644 116.013 21.614 115.863 21.524C115.719 21.44 115.554 21.338 115.368 21.218C115.182 21.098 114.954 20.984 114.684 20.876C114.42 20.762 114.105 20.666 113.739 20.588C113.379 20.51 112.95 20.471 112.452 20.471C111.726 20.471 111.069 20.591 110.481 20.831C109.893 21.065 109.392 21.404 108.978 21.848C108.564 22.286 108.246 22.82 108.024 23.45C107.802 24.074 107.691 24.776 107.691 25.556C107.691 26.366 107.805 27.092 108.033 27.734C108.267 28.37 108.597 28.913 109.023 29.363C109.455 29.807 109.977 30.146 110.589 30.38C111.201 30.614 111.888 30.731 112.65 30.731C112.95 30.731 113.229 30.713 113.487 30.677C113.751 30.641 114.003 30.593 114.243 30.533C114.483 30.467 114.714 30.389 114.936 30.299C115.158 30.203 115.383 30.095 115.611 29.975V27.131H113.604C113.49 27.131 113.397 27.098 113.325 27.032C113.259 26.966 113.226 26.885 113.226 26.789V25.799H117.186V30.749ZM131.774 25.556C131.774 26.522 131.621 27.41 131.315 28.22C131.009 29.024 130.577 29.717 130.019 30.299C129.461 30.881 128.789 31.334 128.003 31.658C127.223 31.976 126.359 32.135 125.411 32.135C124.463 32.135 123.599 31.976 122.819 31.658C122.039 31.334 121.37 30.881 120.812 30.299C120.254 29.717 119.822 29.024 119.516 28.22C119.21 27.41 119.057 26.522 119.057 25.556C119.057 24.59 119.21 23.705 119.516 22.901C119.822 22.091 120.254 21.395 120.812 20.813C121.37 20.225 122.039 19.769 122.819 19.445C123.599 19.121 124.463 18.959 125.411 18.959C126.359 18.959 127.223 19.121 128.003 19.445C128.789 19.769 129.461 20.225 130.019 20.813C130.577 21.395 131.009 22.091 131.315 22.901C131.621 23.705 131.774 24.59 131.774 25.556ZM129.983 25.556C129.983 24.764 129.875 24.053 129.659 23.423C129.443 22.793 129.137 22.262 128.741 21.83C128.345 21.392 127.865 21.056 127.301 20.822C126.737 20.588 126.107 20.471 125.411 20.471C124.721 20.471 124.094 20.588 123.53 20.822C122.966 21.056 122.483 21.392 122.081 21.83C121.685 22.262 121.379 22.793 121.163 23.423C120.947 24.053 120.839 24.764 120.839 25.556C120.839 26.348 120.947 27.059 121.163 27.689C121.379 28.313 121.685 28.844 122.081 29.282C122.483 29.714 122.966 30.047 123.53 30.281C124.094 30.509 124.721 30.623 125.411 30.623C126.107 30.623 126.737 30.509 127.301 30.281C127.865 30.047 128.345 29.714 128.741 29.282C129.137 28.844 129.443 28.313 129.659 27.689C129.875 27.059 129.983 26.348 129.983 25.556Z" fill="black"/>
</svg>
